<?xml version="1.0" encoding="UTF-8" standalone="no"?>
<!-- Created with Inkscape (http://www.inkscape.org/) -->

<svg
   xmlns:dc="http://purl.org/dc/elements/1.1/"
   xmlns:cc="http://creativecommons.org/ns#"
   xmlns:rdf="http://www.w3.org/1999/02/22-rdf-syntax-ns#"
   xmlns:svg="http://www.w3.org/2000/svg"
   xmlns="http://www.w3.org/2000/svg"
   xmlns:sodipodi="http://sodipodi.sourceforge.net/DTD/sodipodi-0.dtd"
   xmlns:inkscape="http://www.inkscape.org/namespaces/inkscape"
   width="512"
   height="512"
   viewBox="0 0 135.46666 135.46666"
   version="1.1"
   id="svg8"
   sodipodi:docname="water drop.svg"
   inkscape:version="0.92.4 (5da689c313, 2019-01-14)"
   inkscape:export-filename="G:\Můj disk\JSC electronics\Projekty\Adeon\Grafika\Icons\Maus\s bílým podkladem\water drop.png"
   inkscape:export-xdpi="25.4"
   inkscape:export-ydpi="25.4">
  <defs
     id="defs2" />
  <sodipodi:namedview
     id="base"
     pagecolor="#ffffff"
     bordercolor="#666666"
     borderopacity="1.0"
     inkscape:pageopacity="0.0"
     inkscape:pageshadow="2"
     inkscape:zoom="0.10332114"
     inkscape:cx="621.7765"
     inkscape:cy="924.65585"
     inkscape:document-units="px"
     inkscape:current-layer="svg8"
     showgrid="false"
     inkscape:window-width="1920"
     inkscape:window-height="1017"
     inkscape:window-x="-8"
     inkscape:window-y="-8"
     inkscape:window-maximized="1"
     units="px" />
  <metadata
     id="metadata5">
    <rdf:RDF>
      <cc:Work
         rdf:about="">
        <dc:format>image/svg+xml</dc:format>
        <dc:type
           rdf:resource="http://purl.org/dc/dcmitype/StillImage" />
        <dc:title></dc:title>
      </cc:Work>
    </rdf:RDF>
  </metadata>
  <g
     inkscape:label="Vrstva 1"
     inkscape:groupmode="layer"
     id="layer1"
     transform="translate(0,-161.53334)" />
  <g
     id="g937"
     transform="matrix(0.26458332,0,0,0.26458332,0,-1e-5)">
    <rect
       y="0"
       x="2.1316282e-14"
       height="512"
       width="512"
       id="rect815"
       style="fill:#ffffff;fill-opacity:1;stroke:none;stroke-width:16.78231621;stroke-miterlimit:4;stroke-dasharray:none;stroke-opacity:1" />
    <g
       id="g856"
       transform="translate(-2.1491062e-8,128.655)">
      <g
         id="g849">
        <g
           id="g843">
          <g
             id="g839">
            <path
               id="path833"
               d="m 337.545,42.5715 c -27.181,-44.8639997 -57.413,-83.693 -73.016,-102.846 -2.088,-2.565 -5.221,-4.054 -8.528,-4.053 -3.308,0 -6.44,1.489 -8.529,4.054 -15.602,19.159 -45.834,58.0010003 -73.015,102.869 -35.028,57.823 -52.789,105.63 -52.789,142.09 0,74.071 60.261,134.332 134.332,134.332 74.071,0 134.332,-60.261 134.332,-134.332 0.001,-36.484 -17.758,-84.298 -52.787,-142.114 z"
               style="fill:#00c1ff;fill-opacity:1;stroke:#0091ff;stroke-width:10;stroke-miterlimit:4;stroke-dasharray:none;stroke-opacity:1"
               inkscape:connector-curvature="0" />
          </g>
        </g>
        <path
           id="path2"
           d="m 274.434,269.5405 c -7.844,2.006 -15.986,3.022 -24.205,3.022 -50.186,0 -91.015,-37.929 -91.015,-84.55 0,-11.255 2.97,-24.405 8.825,-39.083 0.989,-2.48 3.807,-3.895 6.585,-3.295 2.776,0.598 4.64,3.018 4.354,5.65 -0.342,3.148 -0.516,6.223 -0.516,9.136 0,50.735 40.881,93.221 95.093,98.821 2.698,0.279 4.803,2.297 5.018,4.812 0.216,2.515 -1.522,4.817 -4.139,5.487 z"
           style="fill:#fdffff;fill-opacity:1;stroke:#0088ff;stroke-width:10;stroke-miterlimit:4;stroke-dasharray:none;stroke-opacity:1"
           inkscape:connector-curvature="0" />
      </g>
    </g>
  </g>
</svg>
