<?xml version="1.0" encoding="UTF-8" standalone="no"?>
<!-- Created with Inkscape (http://www.inkscape.org/) -->

<svg
   xmlns:dc="http://purl.org/dc/elements/1.1/"
   xmlns:cc="http://creativecommons.org/ns#"
   xmlns:rdf="http://www.w3.org/1999/02/22-rdf-syntax-ns#"
   xmlns:svg="http://www.w3.org/2000/svg"
   xmlns="http://www.w3.org/2000/svg"
   xmlns:sodipodi="http://sodipodi.sourceforge.net/DTD/sodipodi-0.dtd"
   xmlns:inkscape="http://www.inkscape.org/namespaces/inkscape"
   width="512"
   height="512"
   viewBox="0 0 135.46666 135.46666"
   version="1.1"
   id="svg8"
   inkscape:version="0.92.4 (5da689c313, 2019-01-14)"
   sodipodi:docname="subway.svg"
   inkscape:export-filename="G:\Můj disk\JSC electronics\Projekty\Adeon\Grafika\Icons\Maus\s bílým podkladem\bus.png"
   inkscape:export-xdpi="25.4"
   inkscape:export-ydpi="25.4">
  <defs
     id="defs2" />
  <sodipodi:namedview
     id="base"
     pagecolor="#ffffff"
     bordercolor="#666666"
     borderopacity="1.0"
     inkscape:pageopacity="0.0"
     inkscape:pageshadow="2"
     inkscape:zoom="0.20664229"
     inkscape:cx="880.24371"
     inkscape:cy="59.002874"
     inkscape:document-units="px"
     inkscape:current-layer="layer1"
     showgrid="false"
     inkscape:window-width="1920"
     inkscape:window-height="1017"
     inkscape:window-x="-8"
     inkscape:window-y="-8"
     inkscape:window-maximized="1"
     units="px" />
  <metadata
     id="metadata5">
    <rdf:RDF>
      <cc:Work
         rdf:about="">
        <dc:format>image/svg+xml</dc:format>
        <dc:type
           rdf:resource="http://purl.org/dc/dcmitype/StillImage" />
        <dc:title></dc:title>
      </cc:Work>
    </rdf:RDF>
  </metadata>
  <g
     inkscape:label="Vrstva 1"
     inkscape:groupmode="layer"
     id="layer1"
     transform="translate(0,-161.53334)">
    <g
       id="g900"
       transform="matrix(0.26458332,0,0,0.26458332,0,218.41875)">
      <rect
         y="-215"
         x="2.1316282e-14"
         height="512"
         width="512"
         id="rect815"
         style="fill:#ffffff;fill-opacity:1;stroke:none;stroke-width:16.78231621;stroke-miterlimit:4;stroke-dasharray:none;stroke-opacity:1" />
      <g
         id="g908"
         transform="translate(-2e-6,-215)">
        <path
           style="fill:none;stroke-width:14.58333302"
           d="M 81.000004,81.000004 V 431 H 431 V 81.000004 Z"
           id="path894"
           inkscape:connector-curvature="0" />
        <path
           style="fill:none;stroke-width:14.58333302"
           d="M 401.83333,401.83333 H 110.16667 v -191.625 c 0,-40.97916 22.3125,-73.20833 61.25,-88.37499 26.25,-10.35417 57.45833,-11.66667 84.58333,-11.66667 27.125,0 58.33333,1.3125 84.58333,11.66667 38.9375,15.16666 61.25,47.39583 61.25,88.37499 z"
           id="path2"
           inkscape:connector-curvature="0" />
        <circle
           cx="307.04166"
           cy="314.33334"
           r="14.583333"
           id="circle4"
           style="fill:#ffff20;fill-opacity:1;stroke:#ffd11b;stroke-width:4;stroke-miterlimit:4;stroke-dasharray:none;stroke-opacity:1" />
        <circle
           cx="204.95833"
           cy="314.33334"
           r="14.583333"
           id="circle6"
           style="fill:#ffff20;fill-opacity:1;stroke:#ffd11b;stroke-width:4;stroke-miterlimit:4;stroke-dasharray:none;stroke-opacity:1" />
        <g
           id="g824"
           transform="matrix(14.583333,0,0,14.583333,81.000004,-7035.6665)"
           style="fill:#000000;fill-opacity:1">
          <path
             inkscape:connector-curvature="0"
             id="path8"
             d="m 7.01,497 h 10 v 5 h -10 z M 17.8,490.8 C 16,490.09 13.86,490 12,490 c -1.86,0 -4,0.09 -5.8,0.8 -2.67,1.04 -4.2,3.25 -4.2,6.06 V 510 h 20 v -13.14 c 0,-2.81 -1.53,-5.02 -4.2,-6.06 z m 0.2,13.08 c 0,1.45 -1.18,2.62 -2.63,2.62 l 1.13,1.12 V 508 H 15 l -1.5,-1.5 H 10.67 L 9.17,508 H 7.5 v -0.38 L 8.62,506.5 C 7.18,506.5 6,505.32 6,503.88 V 497 c 0,-2.63 3,-3 6,-3 3.32,0 6,0.38 6,3 z"
             style="fill:#000000;fill-opacity:1" />
        </g>
        <rect
           style="opacity:0.95;fill:#00e4ff;fill-opacity:1;fill-rule:nonzero;stroke:#00d0f3;stroke-width:2;stroke-miterlimit:4;stroke-dasharray:none;stroke-opacity:1"
           id="rect896"
           width="145.83333"
           height="72.916664"
           x="183.22917"
           y="212.25" />
        <rect
           style="opacity:0.95;fill:#ff1800;fill-opacity:1;fill-rule:nonzero;stroke:none;stroke-width:4;stroke-miterlimit:4;stroke-dasharray:none;stroke-opacity:1"
           id="rect898"
           width="30.915255"
           height="10.576271"
           x="240.6882"
           y="189.01694" />
      </g>
    </g>
  </g>
</svg>
