<?xml version="1.0" encoding="UTF-8" standalone="no"?>
<!-- Created with Inkscape (http://www.inkscape.org/) -->

<svg
   xmlns:dc="http://purl.org/dc/elements/1.1/"
   xmlns:cc="http://creativecommons.org/ns#"
   xmlns:rdf="http://www.w3.org/1999/02/22-rdf-syntax-ns#"
   xmlns:svg="http://www.w3.org/2000/svg"
   xmlns="http://www.w3.org/2000/svg"
   xmlns:sodipodi="http://sodipodi.sourceforge.net/DTD/sodipodi-0.dtd"
   xmlns:inkscape="http://www.inkscape.org/namespaces/inkscape"
   width="512"
   height="512"
   viewBox="0 0 135.46666 135.46666"
   version="1.1"
   id="svg8"
   inkscape:version="0.92.4 (5da689c313, 2019-01-14)"
   sodipodi:docname="mobile phone.svg"
   inkscape:export-filename="G:\Můj disk\JSC electronics\Projekty\Adeon\Grafika\Icons\Maus\s bílým podkladem\person_purple.png"
   inkscape:export-xdpi="25.4"
   inkscape:export-ydpi="25.4">
  <defs
     id="defs2" />
  <sodipodi:namedview
     id="base"
     pagecolor="#ffffff"
     bordercolor="#666666"
     borderopacity="1.0"
     inkscape:pageopacity="0.0"
     inkscape:pageshadow="2"
     inkscape:zoom="0.14611816"
     inkscape:cx="887.8502"
     inkscape:cy="955.94956"
     inkscape:document-units="px"
     inkscape:current-layer="layer1"
     showgrid="false"
     inkscape:window-width="1920"
     inkscape:window-height="1017"
     inkscape:window-x="-8"
     inkscape:window-y="-8"
     inkscape:window-maximized="1"
     units="px" />
  <metadata
     id="metadata5">
    <rdf:RDF>
      <cc:Work
         rdf:about="">
        <dc:format>image/svg+xml</dc:format>
        <dc:type
           rdf:resource="http://purl.org/dc/dcmitype/StillImage" />
        <dc:title></dc:title>
      </cc:Work>
    </rdf:RDF>
  </metadata>
  <g
     inkscape:label="Vrstva 1"
     inkscape:groupmode="layer"
     id="layer1"
     transform="translate(0,-161.53334)">
    <g
       id="g935"
       transform="matrix(0.26458332,0,0,0.26458332,0,218.41875)">
      <rect
         y="-215"
         x="2.1316282e-14"
         height="512"
         width="512"
         id="rect815"
         style="fill:#ffffff;fill-opacity:1;stroke:none;stroke-width:16.78231621;stroke-miterlimit:4;stroke-dasharray:none;stroke-opacity:1" />
      <g
         transform="matrix(0.44191919,0,0,0.44191919,81.000001,-134)"
         id="g4">
        <g
           id="g970">
          <path
             d="m 521.806,792 c 0,0 71.889,0 71.889,-71.997 V 71.997 C 593.694,0 521.806,0 521.806,0 H 270.194 c 0,0 -71.889,0 -71.889,71.997 V 720.003 C 198.306,792 270.194,792 270.194,792 Z"
             id="path960"
             inkscape:connector-curvature="0" />
          <path
             d="m 396,762.022 c -19.841,0 -35.944,-16.104 -35.944,-35.944 0,-19.842 16.103,-35.944 35.944,-35.944 19.842,0 35.944,16.103 35.944,35.944 0,19.841 -16.102,35.944 -35.944,35.944 z"
             id="path958"
             style="fill:#ffffff;fill-opacity:0.97938143"
             inkscape:connector-curvature="0" />
          <path
             d="m 342.083,43.888 c 0,-4.457 2.121,-7.944 4.78,-7.944 h 98.272 c 2.624,0 4.781,3.559 4.781,7.944 v 2.121 c 0,4.457 -2.157,7.944 -4.781,7.944 h -98.272 c -2.624,0 -4.78,-3.559 -4.78,-7.944 z"
             id="path956"
             style="fill:#ffffff;fill-opacity:0.97938143"
             inkscape:connector-curvature="0" />
          <path
             d="m 234.25,89.861 h 323.5 v 575.111 h -323.5 z"
             id="path2"
             style="fill:#bbef4e;fill-opacity:1"
             inkscape:connector-curvature="0" />
        </g>
      </g>
    </g>
  </g>
</svg>
