<?xml version="1.0" encoding="UTF-8" standalone="no"?>
<!-- Generator: Adobe Illustrator 16.0.0, SVG Export Plug-In . SVG Version: 6.00 Build 0)  -->

<svg
   xmlns:dc="http://purl.org/dc/elements/1.1/"
   xmlns:cc="http://creativecommons.org/ns#"
   xmlns:rdf="http://www.w3.org/1999/02/22-rdf-syntax-ns#"
   xmlns:svg="http://www.w3.org/2000/svg"
   xmlns="http://www.w3.org/2000/svg"
   xmlns:sodipodi="http://sodipodi.sourceforge.net/DTD/sodipodi-0.dtd"
   xmlns:inkscape="http://www.inkscape.org/namespaces/inkscape"
   version="1.1"
   id="Capa_1"
   x="0px"
   y="0px"
   width="512"
   height="512"
   viewBox="0 0 511.99999 512"
   xml:space="preserve"
   sodipodi:docname="animal.svg"
   inkscape:version="0.92.4 (5da689c313, 2019-01-14)"
   inkscape:export-filename="G:\Můj disk\JSC electronics\Projekty\Adeon\Grafika\Icons\Maus\animal.png"
   inkscape:export-xdpi="96"
   inkscape:export-ydpi="96"><metadata
   id="metadata51"><rdf:RDF><cc:Work
       rdf:about=""><dc:format>image/svg+xml</dc:format><dc:type
         rdf:resource="http://purl.org/dc/dcmitype/StillImage" /><dc:title /></cc:Work></rdf:RDF></metadata><defs
   id="defs49" /><sodipodi:namedview
   pagecolor="#ffffff"
   bordercolor="#666666"
   borderopacity="1"
   objecttolerance="10"
   gridtolerance="10"
   guidetolerance="10"
   inkscape:pageopacity="0"
   inkscape:pageshadow="2"
   inkscape:window-width="1920"
   inkscape:window-height="1017"
   id="namedview47"
   showgrid="false"
   inkscape:zoom="1.010193"
   inkscape:cx="294.31704"
   inkscape:cy="176.43694"
   inkscape:window-x="-8"
   inkscape:window-y="-8"
   inkscape:window-maximized="1"
   inkscape:current-layer="Capa_1" />
<g
   transform="matrix(3.7795277,0,0,3.7795277,3.9099036e-6,-610.51973)"
   id="layer1"
   inkscape:label="Vrstva 1"><rect
     y="161.53334"
     x="2.1316282e-14"
     height="135.46666"
     width="135.46666"
     id="rect815"
     style="fill:#ffffff;fill-opacity:1;stroke:none;stroke-width:4.44032097;stroke-miterlimit:4;stroke-dasharray:none;stroke-opacity:1" /></g><g
   id="g14"
   transform="matrix(0.89714605,0,0,0.89714605,81,81.000449)"
   style="fill:#823a0f;fill-opacity:0.93814433;stroke:#5e3c00;stroke-opacity:0.98969072;stroke-width:11.14645715;stroke-miterlimit:4;stroke-dasharray:none">
	<g
   id="g12"
   style="fill:#823a0f;fill-opacity:0.93814433;stroke:#5e3c00;stroke-opacity:0.98969072;stroke-width:11.14645715;stroke-miterlimit:4;stroke-dasharray:none">
		<path
   d="m 132.64,177.859 c 31.162,0 56.508,-34.014 56.508,-75.834 0,-41.817 -25.347,-75.841 -56.508,-75.841 -31.153,0 -56.502,34.023 -56.502,75.841 0,41.82 25.349,75.834 56.502,75.834 z"
   id="path2"
   inkscape:connector-curvature="0"
   style="fill:#823a0f;fill-opacity:0.93814433;stroke:#5e3c00;stroke-opacity:0.98969072;stroke-width:11.14645715;stroke-miterlimit:4;stroke-dasharray:none" />
		<path
   d="m 300.246,251.628 c -1.159,-1.579 -2.27,-3.068 -2.864,-4.348 C 284.747,220.234 250.112,188.349 194,187.556 l -2.159,-0.012 c -55.25,0 -89.627,30.197 -103.381,58.469 -0.475,0.967 -1.52,2.222 -2.627,3.549 -1.31,1.555 -2.606,3.146 -3.714,4.875 -11.619,18.075 -17.543,38.426 -16.669,57.299 0.916,20.037 9.305,36.131 23.581,45.312 5.768,3.705 11.992,5.572 18.522,5.572 13.465,0 25.793,-7.584 40.079,-16.368 9.083,-5.598 18.465,-11.374 28.886,-15.697 1.168,-0.385 5.954,-0.973 13.781,-0.973 9.307,0 15.991,0.828 17.419,1.321 10.173,4.491 19.107,10.382 27.748,16.068 13.247,8.731 25.755,16.97 39.326,16.97 5.824,0 11.469,-1.537 16.795,-4.563 29.382,-16.693 34.979,-62.492 12.484,-102.088 -1.129,-1.987 -2.474,-3.842 -3.825,-5.662 z"
   id="path4"
   inkscape:connector-curvature="0"
   style="fill:#823a0f;fill-opacity:0.93814433;stroke:#5e3c00;stroke-opacity:0.98969072;stroke-width:11.14645715;stroke-miterlimit:4;stroke-dasharray:none" />
		<path
   d="m 252.796,177.859 c 31.147,0 56.499,-34.014 56.499,-75.834 0,-41.817 -25.352,-75.841 -56.499,-75.841 -31.165,0 -56.511,34.023 -56.511,75.841 0,41.82 25.346,75.834 56.511,75.834 z"
   id="path6"
   inkscape:connector-curvature="0"
   style="fill:#823a0f;fill-opacity:0.93814433;stroke:#5e3c00;stroke-opacity:0.98969072;stroke-width:11.14645715;stroke-miterlimit:4;stroke-dasharray:none" />
		<path
   d="m 345.595,138.918 c -24.975,0 -44.521,25.901 -44.521,58.967 0,33.051 19.558,58.955 44.521,58.955 24.961,0 44.531,-25.904 44.531,-58.955 0,-33.065 -19.558,-58.967 -44.531,-58.967 z"
   id="path8"
   inkscape:connector-curvature="0"
   style="fill:#823a0f;fill-opacity:0.93814433;stroke:#5e3c00;stroke-opacity:0.98969072;stroke-width:11.14645715;stroke-miterlimit:4;stroke-dasharray:none" />
		<path
   d="M 89.048,197.885 C 89.048,164.82 69.49,138.918 44.526,138.918 19.561,138.918 0,164.82 0,197.885 c 0,33.051 19.561,58.955 44.526,58.955 24.965,0 44.522,-25.904 44.522,-58.955 z"
   id="path10"
   inkscape:connector-curvature="0"
   style="fill:#823a0f;fill-opacity:0.93814433;stroke:#5e3c00;stroke-opacity:0.98969072;stroke-width:11.14645715;stroke-miterlimit:4;stroke-dasharray:none" />
	</g>
</g>
<g
   id="g16"
   transform="translate(0,121.875)">
</g>
<g
   id="g18"
   transform="translate(0,121.875)">
</g>
<g
   id="g20"
   transform="translate(0,121.875)">
</g>
<g
   id="g22"
   transform="translate(0,121.875)">
</g>
<g
   id="g24"
   transform="translate(0,121.875)">
</g>
<g
   id="g26"
   transform="translate(0,121.875)">
</g>
<g
   id="g28"
   transform="translate(0,121.875)">
</g>
<g
   id="g30"
   transform="translate(0,121.875)">
</g>
<g
   id="g32"
   transform="translate(0,121.875)">
</g>
<g
   id="g34"
   transform="translate(0,121.875)">
</g>
<g
   id="g36"
   transform="translate(0,121.875)">
</g>
<g
   id="g38"
   transform="translate(0,121.875)">
</g>
<g
   id="g40"
   transform="translate(0,121.875)">
</g>
<g
   id="g42"
   transform="translate(0,121.875)">
</g>
<g
   id="g44"
   transform="translate(0,121.875)">
</g>
</svg>