<?xml version="1.0" encoding="UTF-8" standalone="no"?>
<!-- Created with Inkscape (http://www.inkscape.org/) -->

<svg
   xmlns:dc="http://purl.org/dc/elements/1.1/"
   xmlns:cc="http://creativecommons.org/ns#"
   xmlns:rdf="http://www.w3.org/1999/02/22-rdf-syntax-ns#"
   xmlns:svg="http://www.w3.org/2000/svg"
   xmlns="http://www.w3.org/2000/svg"
   xmlns:sodipodi="http://sodipodi.sourceforge.net/DTD/sodipodi-0.dtd"
   xmlns:inkscape="http://www.inkscape.org/namespaces/inkscape"
   width="512"
   height="512"
   viewBox="0 0 135.46666 135.46666"
   version="1.1"
   id="svg8"
   inkscape:version="0.92.4 (5da689c313, 2019-01-14)"
   sodipodi:docname="thermometer_red.svg"
   inkscape:export-filename="G:\Můj disk\JSC electronics\Projekty\Adeon\Grafika\Icons\Maus\s bílým podkladem\thermometer_blue.png"
   inkscape:export-xdpi="25.4"
   inkscape:export-ydpi="25.4">
  <defs
     id="defs2" />
  <sodipodi:namedview
     id="base"
     pagecolor="#ffffff"
     bordercolor="#666666"
     borderopacity="1.0"
     inkscape:pageopacity="0.0"
     inkscape:pageshadow="2"
     inkscape:zoom="0.20664229"
     inkscape:cx="1055.5856"
     inkscape:cy="-299.44021"
     inkscape:document-units="px"
     inkscape:current-layer="layer1"
     showgrid="false"
     inkscape:window-width="1920"
     inkscape:window-height="1017"
     inkscape:window-x="-8"
     inkscape:window-y="-8"
     inkscape:window-maximized="1"
     units="px" />
  <metadata
     id="metadata5">
    <rdf:RDF>
      <cc:Work
         rdf:about="">
        <dc:format>image/svg+xml</dc:format>
        <dc:type
           rdf:resource="http://purl.org/dc/dcmitype/StillImage" />
        <dc:title></dc:title>
      </cc:Work>
    </rdf:RDF>
  </metadata>
  <g
     inkscape:label="Vrstva 1"
     inkscape:groupmode="layer"
     id="layer1"
     transform="translate(0,-161.53334)">
    <g
       id="g988"
       transform="matrix(0.26458332,0,0,0.26458332,0,218.41875)">
      <rect
         y="-215"
         x="2.1316282e-14"
         height="512"
         width="512"
         id="rect815"
         style="fill:#ffffff;fill-opacity:1;stroke:none;stroke-width:16.78231621;stroke-miterlimit:4;stroke-dasharray:none;stroke-opacity:1" />
      <g
         id="g852"
         transform="translate(0,-215)">
        <path
           d="m 268.44691,344.67236 c 0,-1.22752 0,-1.22752 0,-2.45439 V 218.62592 c 0,-7.4297 -4.91005,-12.33976 -12.33911,-12.33976 -7.4297,0 -12.33975,6.20218 -12.33975,12.33976 v 123.52615 c 0,1.22752 0,1.22752 0,2.45568 -14.8594,4.97402 -24.67952,18.54129 -24.67952,34.56425 0,20.99697 16.0869,37.08388 37.08388,37.08388 20.99632,0 37.08324,-16.08691 37.08324,-37.08388 -0.064,-15.95706 -9.94934,-29.52433 -24.80874,-34.49964 z"
           id="path2"
           inkscape:connector-curvature="0"
           style="fill:#d80000;fill-opacity:0.8006873;stroke-width:0.64606065" />
        <path
           d="M 293.0842,330.19942 V 107.76138 c 0,-20.996969 -16.08691,-37.08388 -37.08388,-37.08388 -20.99697,0 -37.08388,17.314426 -37.08388,37.08388 v 222.37408 c -14.85939,11.11289 -24.67952,29.65419 -24.67952,49.42364 0,34.56425 27.19916,61.7634 61.7634,61.7634 34.56425,0 61.76276,-27.19915 61.76276,-61.7634 0,-19.76945 -9.88409,-38.24679 -24.67888,-49.35968 z m -37.08388,98.84728 c -27.19915,0 -49.42364,-22.2232 -49.42364,-49.42364 0,-18.5413 9.88474,-34.56425 24.67952,-43.22016 V 107.76138 c 0,-13.567272 11.11224,-24.679516 24.67952,-24.679516 13.56727,0 24.67887,11.112244 24.67887,24.679516 v 228.57561 c 14.85939,8.65722 24.68016,24.68017 24.68016,43.22147 0.12922,27.19915 -22.09592,49.48824 -49.29443,49.48824 z"
           id="path4"
           inkscape:connector-curvature="0"
           style="fill:#000000;fill-opacity:1;stroke-width:0.64606065" />
      </g>
    </g>
  </g>
</svg>
