<?xml version="1.0" encoding="UTF-8" standalone="no"?>
<!-- Created with Inkscape (http://www.inkscape.org/) -->

<svg
   xmlns:dc="http://purl.org/dc/elements/1.1/"
   xmlns:cc="http://creativecommons.org/ns#"
   xmlns:rdf="http://www.w3.org/1999/02/22-rdf-syntax-ns#"
   xmlns:svg="http://www.w3.org/2000/svg"
   xmlns="http://www.w3.org/2000/svg"
   xmlns:sodipodi="http://sodipodi.sourceforge.net/DTD/sodipodi-0.dtd"
   xmlns:inkscape="http://www.inkscape.org/namespaces/inkscape"
   width="512"
   height="512"
   viewBox="0 0 135.46666 135.46666"
   version="1.1"
   id="svg8"
   inkscape:version="0.92.4 (5da689c313, 2019-01-14)"
   sodipodi:docname="bus.svg"
   inkscape:export-filename="G:\Můj disk\JSC electronics\Projekty\Adeon\Grafika\Icons\Maus\s bílým podkladem\key.png"
   inkscape:export-xdpi="25.4"
   inkscape:export-ydpi="25.4">
  <defs
     id="defs2" />
  <sodipodi:namedview
     id="base"
     pagecolor="#ffffff"
     bordercolor="#666666"
     borderopacity="1.0"
     inkscape:pageopacity="0.0"
     inkscape:pageshadow="2"
     inkscape:zoom="0.14611816"
     inkscape:cx="-835.23288"
     inkscape:cy="865.51123"
     inkscape:document-units="px"
     inkscape:current-layer="layer1"
     showgrid="false"
     inkscape:window-width="1920"
     inkscape:window-height="1017"
     inkscape:window-x="-8"
     inkscape:window-y="-8"
     inkscape:window-maximized="1"
     units="px" />
  <metadata
     id="metadata5">
    <rdf:RDF>
      <cc:Work
         rdf:about="">
        <dc:format>image/svg+xml</dc:format>
        <dc:type
           rdf:resource="http://purl.org/dc/dcmitype/StillImage" />
        <dc:title></dc:title>
      </cc:Work>
    </rdf:RDF>
  </metadata>
  <g
     inkscape:label="Vrstva 1"
     inkscape:groupmode="layer"
     id="layer1"
     transform="translate(0,-161.53334)">
    <g
       id="g859"
       transform="matrix(0.26458332,0,0,0.26458332,0,218.41875)">
      <rect
         y="-215"
         x="2.1316282e-14"
         height="512"
         width="512"
         id="rect815"
         style="fill:#ffffff;fill-opacity:1;stroke:none;stroke-width:16.78231621;stroke-miterlimit:4;stroke-dasharray:none;stroke-opacity:1" />
      <g
         id="g1036"
         transform="translate(0,-215)">
        <g
           id="g1029">
          <path
             id="path828"
             d="m 108.63158,338.89474 c 0,16.21052 7.18421,30.76315 18.42105,40.89473 v 32.78948 c 0,10.13158 8.28948,18.42105 18.42106,18.42105 h 18.42105 c 10.13158,0 18.42105,-8.28947 18.42105,-18.42105 v -18.42106 h 147.36842 v 18.42106 c 0,10.13158 8.28948,18.42105 18.42105,18.42105 h 18.42106 c 10.13158,0 18.42105,-8.28947 18.42105,-18.42105 v -32.78948 c 11.23684,-10.13158 18.42105,-24.68421 18.42105,-40.89473 V 154.68421 C 403.36842,90.21053 337.42105,81 256,81 174.57895,81 108.63158,90.21053 108.63158,154.68421 Z"
             style="fill:#5a5a5a;fill-opacity:1;stroke:none;stroke-width:10;stroke-miterlimit:4;stroke-dasharray:none;stroke-opacity:1"
             inkscape:connector-curvature="0" />
        </g>
        <path
           style="fill:#ffeb3b;fill-opacity:1;stroke:none;stroke-width:10;stroke-miterlimit:4;stroke-dasharray:none;stroke-opacity:1"
           d="m 173.10526,357.31579 c -15.28947,0 -27.63157,-12.34211 -27.63157,-27.63158 0,-15.28947 12.3421,-27.63158 27.63157,-27.63158 15.28948,0 27.63158,12.34211 27.63158,27.63158 0,15.28947 -12.3421,27.63158 -27.63158,27.63158 z"
           id="path826"
           inkscape:connector-curvature="0" />
        <path
           style="fill:#ffeb3b;fill-opacity:1;stroke:none;stroke-width:10;stroke-miterlimit:4;stroke-dasharray:none;stroke-opacity:1"
           d="m 338.89474,357.31579 c -15.28948,0 -27.63158,-12.34211 -27.63158,-27.63158 0,-15.28947 12.3421,-27.63158 27.63158,-27.63158 15.28947,0 27.63158,12.34211 27.63158,27.63158 0,15.28947 -12.34211,27.63158 -27.63158,27.63158 z"
           id="path824"
           inkscape:connector-curvature="0" />
        <path
           style="fill:#00ffff;fill-opacity:1;stroke:none;stroke-width:10;stroke-miterlimit:4;stroke-dasharray:none;stroke-opacity:1"
           d="M 366.52632,246.78947 H 145.47369 v -92.10526 h 221.05263 z"
           id="path4"
           inkscape:connector-curvature="0" />
      </g>
    </g>
  </g>
</svg>
