<?xml version="1.0" encoding="UTF-8" standalone="no"?>
<!-- Created with Inkscape (http://www.inkscape.org/) -->

<svg
   xmlns:dc="http://purl.org/dc/elements/1.1/"
   xmlns:cc="http://creativecommons.org/ns#"
   xmlns:rdf="http://www.w3.org/1999/02/22-rdf-syntax-ns#"
   xmlns:svg="http://www.w3.org/2000/svg"
   xmlns="http://www.w3.org/2000/svg"
   xmlns:sodipodi="http://sodipodi.sourceforge.net/DTD/sodipodi-0.dtd"
   xmlns:inkscape="http://www.inkscape.org/namespaces/inkscape"
   width="512"
   height="512"
   viewBox="0 0 135.46666 135.46666"
   version="1.1"
   id="svg8"
   inkscape:version="0.92.4 (5da689c313, 2019-01-14)"
   sodipodi:docname="key.svg"
   inkscape:export-filename="G:\Můj disk\JSC electronics\Projekty\Adeon\Grafika\Icons\Maus\s bílým podkladem\music note.png"
   inkscape:export-xdpi="25.4"
   inkscape:export-ydpi="25.4">
  <defs
     id="defs2" />
  <sodipodi:namedview
     id="base"
     pagecolor="#ffffff"
     bordercolor="#666666"
     borderopacity="1.0"
     inkscape:pageopacity="0.0"
     inkscape:pageshadow="2"
     inkscape:zoom="0.20664229"
     inkscape:cx="246.15904"
     inkscape:cy="1135.0527"
     inkscape:document-units="px"
     inkscape:current-layer="layer1"
     showgrid="false"
     inkscape:window-width="1920"
     inkscape:window-height="1017"
     inkscape:window-x="-8"
     inkscape:window-y="-8"
     inkscape:window-maximized="1"
     units="px" />
  <metadata
     id="metadata5">
    <rdf:RDF>
      <cc:Work
         rdf:about="">
        <dc:format>image/svg+xml</dc:format>
        <dc:type
           rdf:resource="http://purl.org/dc/dcmitype/StillImage" />
        <dc:title></dc:title>
      </cc:Work>
    </rdf:RDF>
  </metadata>
  <g
     inkscape:label="Vrstva 1"
     inkscape:groupmode="layer"
     id="layer1"
     transform="translate(0,-161.53334)">
    <g
       id="g1054"
       transform="matrix(0.26458332,0,0,0.26458332,0,218.41875)">
      <rect
         y="-215"
         x="2.1316282e-14"
         height="512"
         width="512"
         id="rect815"
         style="fill:#ffffff;fill-opacity:1;stroke:none;stroke-width:16.78231621;stroke-miterlimit:4;stroke-dasharray:none;stroke-opacity:1" />
      <g
         id="g886"
         transform="matrix(0.75805999,0,0,0.75805999,61.13977,-153.06333)">
        <g
           id="g880">
          <path
             id="path867"
             d="m 434.16393,207.91446 -194.95499,1.11604 c -5.30757,-11.15314 -12.48293,-21.63045 -21.77001,-30.81181 -42.95859,-42.46955 -112.20752,-42.07313 -154.677073,0.88547 -42.469552,42.95859 -42.073129,112.20752 0.885466,154.67707 42.958597,42.46956 112.207517,42.07313 154.677077,-0.88546 9.18136,-9.28709 16.23629,-19.84586 21.41582,-31.05903 l 9.3425,-0.0535 30.75832,-31.11251 31.11251,30.75832 30.75832,-31.11251 31.11251,30.75833 30.75832,-31.11251 31.11251,30.75832 46.13748,-46.66876 z"
             style="fill:#bebebe;fill-opacity:1;stroke:#777878;stroke-width:10;stroke-miterlimit:4;stroke-dasharray:none;stroke-opacity:1"
             inkscape:connector-curvature="0" />
          <path
             id="path2"
             d="m 123.02592,309.46171 c -4.44958,2.9451 -10.08491,3.44141 -14.98492,1.33485 -19.588482,-8.43019 -33.354235,-27.85294 -33.484178,-50.5518 -0.133787,-22.69497 13.416387,-42.28182 32.914798,-50.93577 4.87942,-2.16641 10.5201,-1.72692 15.00316,1.17478 4.48306,2.90169 7.19133,7.86309 7.22188,13.19945 l 0.41506,72.50487 c 0.0306,5.33636 -2.63621,10.32853 -7.0858,13.27362 z"
             style="fill:#ffffff;fill-opacity:1;stroke:#777878;stroke-width:10;stroke-miterlimit:4;stroke-dasharray:none;stroke-opacity:1"
             inkscape:connector-curvature="0" />
          <path
             inkscape:connector-curvature="0"
             id="path6"
             style="fill:#777878;fill-opacity:1;stroke:none;stroke-width:5.46875;stroke-opacity:1"
             d="m 256.41811,232.1343 c -0.0244,-4.26908 3.4205,-7.75369 7.68958,-7.77812 l 170.14478,-0.97402 15.55626,15.37916 -185.61249,1.06256 c -4.26909,0.0244 -7.75369,-3.42049 -7.77813,-7.68958 z" />
        </g>
      </g>
    </g>
  </g>
</svg>
