<?xml version="1.0" encoding="UTF-8" standalone="no"?>
<!-- Created with Inkscape (http://www.inkscape.org/) -->

<svg
   xmlns:dc="http://purl.org/dc/elements/1.1/"
   xmlns:cc="http://creativecommons.org/ns#"
   xmlns:rdf="http://www.w3.org/1999/02/22-rdf-syntax-ns#"
   xmlns:svg="http://www.w3.org/2000/svg"
   xmlns="http://www.w3.org/2000/svg"
   xmlns:sodipodi="http://sodipodi.sourceforge.net/DTD/sodipodi-0.dtd"
   xmlns:inkscape="http://www.inkscape.org/namespaces/inkscape"
   width="512"
   height="512"
   viewBox="0 0 135.46666 135.46666"
   version="1.1"
   id="svg8"
   inkscape:version="0.92.4 (5da689c313, 2019-01-14)"
   sodipodi:docname="snowflake.svg"
   inkscape:export-filename="G:\Můj disk\JSC electronics\Projekty\Adeon\Grafika\Icons\Maus\s bílým podkladem\snowflake.png"
   inkscape:export-xdpi="25.4"
   inkscape:export-ydpi="25.4">
  <defs
     id="defs2" />
  <sodipodi:namedview
     id="base"
     pagecolor="#ffffff"
     bordercolor="#666666"
     borderopacity="1.0"
     inkscape:pageopacity="0.0"
     inkscape:pageshadow="2"
     inkscape:zoom="0.5"
     inkscape:cx="256"
     inkscape:cy="256"
     inkscape:document-units="px"
     inkscape:current-layer="layer1"
     showgrid="false"
     inkscape:window-width="1920"
     inkscape:window-height="1017"
     inkscape:window-x="-8"
     inkscape:window-y="-8"
     inkscape:window-maximized="1"
     units="px" />
  <metadata
     id="metadata5">
    <rdf:RDF>
      <cc:Work
         rdf:about="">
        <dc:format>image/svg+xml</dc:format>
        <dc:type
           rdf:resource="http://purl.org/dc/dcmitype/StillImage" />
        <dc:title></dc:title>
      </cc:Work>
    </rdf:RDF>
  </metadata>
  <g
     inkscape:label="Vrstva 1"
     inkscape:groupmode="layer"
     id="layer1"
     transform="translate(0,-161.53334)">
    <g
       id="g860"
       transform="matrix(0.26458332,0,0,0.26458332,0,218.41875)">
      <rect
         y="-215"
         x="2.1316282e-14"
         height="512"
         width="512"
         id="rect815"
         style="fill:#ffffff;fill-opacity:1;stroke:none;stroke-width:16.78231621;stroke-miterlimit:4;stroke-dasharray:none;stroke-opacity:1" />
      <path
         style="fill:#00f2f5;fill-opacity:0.24271845;stroke:#00baf4;stroke-width:10.00000286;stroke-miterlimit:4;stroke-dasharray:none;stroke-opacity:0.89690719"
         inkscape:connector-curvature="0"
         id="path2"
         d="m 424.17278,122.33669 -40.61875,-23.450884 35.2,-20.75608 c 6.49229,-3.82843 8.65214,-12.19487 4.82374,-18.6872 -3.8284,-6.49047 -12.19306,-8.65032 -18.6872,-4.82373 l -48.48844,28.59122 -73.10931,-42.21083 73.09657,-42.20362 48.50299,28.5876 c 2.1744,1.28281 4.56174,1.89056 6.91628,1.89056 4.6727,0 9.22352,-2.40185 11.76911,-6.71974 3.82658,-6.49232 1.66492,-14.85876 -4.82737,-18.6872 l -35.20544,-20.748777 40.62782,-23.456359 c 6.52687,-3.768379 8.76314,-12.114826 4.99476,-18.641694 -3.76838,-6.528682 -12.11483,-8.764953 -18.64169,-4.99476 l -40.61871,23.452693 -0.36926,-40.869819 c -0.0673,-7.536758 -6.25032,-13.62694 -13.76886,-13.523192 -7.53672,0.06728 -13.59232,6.232065 -13.52319,13.768823 l 0.50766,56.299934 -73.10568,42.209061 v -84.410824 l 49.01433,-27.701413 c 6.56141,-3.70836 8.87414,-12.032959 5.16582,-18.596229 -3.70836,-6.56145 -12.03478,-8.87595 -18.59623,-5.16582 l -35.58392,20.111932 v -46.909012 c 0,-7.53676 -6.11018,-13.64694 -13.64693,-13.64694 -7.53672,0 -13.6469,6.11018 -13.6469,13.64694 v 46.909012 l -35.58392,-20.110112 c -6.56508,-3.71014 -14.88609,-1.39745 -18.59623,5.16582 -3.70832,6.56145 -1.39563,14.887901 5.16583,18.596224 l 49.01247,27.70145 v 84.408972 l -73.10568,-42.209061 0.50766,-56.299934 c 0.0692,-7.536758 -5.98643,-13.701509 -13.52319,-13.768823 -0.042,0 -0.082,0 -0.12548,0 -7.47852,0 -13.57595,6.028311 -13.64327,13.525006 l -0.36926,40.868005 -40.6187,-23.452693 c -6.526908,-3.770193 -14.873358,-1.532108 -18.641738,4.99476 -3.76837,6.526868 -1.5321,14.873315 4.9948,18.641694 L 128.45324,-16.881991 93.242352,3.870416 c -6.49228,3.82662 -8.65398,12.1931 -4.82736,18.6872 2.54559,4.31789 7.0964,6.71974 11.770928,6.71974 2.35457,0 4.74002,-0.60956 6.91627,-1.89056 l 48.50843,-28.58756 73.09843,42.20358 -73.11116,42.21087 -48.4957,-28.59671 c -6.48866,-3.82658 -14.858798,-1.66855 -18.687198,4.82374 -3.82844,6.49228 -1.66855,14.8588 4.82374,18.68538 l 35.205438,20.75789 -40.618748,23.450884 c -6.52687,3.76838 -8.76314,12.11483 -4.99476,18.6417 2.52741,4.37794 7.11458,6.8253 11.83098,6.8253 2.31451,0 4.66179,-0.58957 6.810708,-1.83054 l 40.61875,-23.4527 0.36926,40.87164 c 0.0673,7.49492 6.16475,13.52504 13.64327,13.52504 0.0419,0 0.0839,0 0.12548,-0.002 7.53675,-0.0673 13.59235,-6.23211 13.52319,-13.76886 l -0.50767,-56.30175 73.1075,-42.209064 v 84.412644 l -49.01247,27.70145 c -6.56146,3.70832 -8.87415,12.03292 -5.16583,18.59618 2.50923,4.43982 7.13281,6.93449 11.89286,6.93449 2.27448,0 4.58173,-0.56953 6.70337,-1.76866 l 35.58392,-20.11012 v 46.90905 c 0,7.53676 6.11018,13.64694 13.6469,13.64694 7.53675,0 13.64693,-6.11018 13.64693,-13.64694 v -46.90905 l 35.58392,20.11012 c 2.12164,1.19913 4.42708,1.76866 6.70337,1.76866 4.76006,0 9.38363,-2.49467 11.89286,-6.93449 3.70832,-6.56141 1.39559,-14.88786 -5.16582,-18.59618 L 269.64781,149.04646 V 64.635636 l 73.10568,42.207254 -0.5204,56.29993 c -0.0711,7.53672 5.98281,13.70332 13.51956,13.77249 0.0439,0.002 0.0854,0.002 0.12926,0.002 7.4767,0 13.57414,-6.02831 13.64331,-13.52137 l 0.37844,-40.87712 40.62419,23.45455 c 2.14893,1.24093 4.4962,1.8305 6.81075,1.8305 4.71636,0 9.30353,-2.44917 11.83094,-6.8253 3.76838,-6.52687 1.53211,-14.87332 -4.99657,-18.64169 z" />
    </g>
  </g>
</svg>
