<?xml version="1.0" encoding="UTF-8" standalone="no"?>
<!-- Created with Inkscape (http://www.inkscape.org/) -->

<svg
   xmlns:dc="http://purl.org/dc/elements/1.1/"
   xmlns:cc="http://creativecommons.org/ns#"
   xmlns:rdf="http://www.w3.org/1999/02/22-rdf-syntax-ns#"
   xmlns:svg="http://www.w3.org/2000/svg"
   xmlns="http://www.w3.org/2000/svg"
   xmlns:sodipodi="http://sodipodi.sourceforge.net/DTD/sodipodi-0.dtd"
   xmlns:inkscape="http://www.inkscape.org/namespaces/inkscape"
   width="512"
   height="512"
   viewBox="0 0 135.46666 135.46666"
   version="1.1"
   id="svg8"
   inkscape:version="0.92.4 (5da689c313, 2019-01-14)"
   sodipodi:docname="door.svg"
   inkscape:export-filename="G:\Můj disk\JSC electronics\Projekty\Adeon\Grafika\Icons\Maus\s bílým podkladem\door.png"
   inkscape:export-xdpi="25.4"
   inkscape:export-ydpi="25.4">
  <defs
     id="defs2" />
  <sodipodi:namedview
     id="base"
     pagecolor="#ffffff"
     bordercolor="#666666"
     borderopacity="1.0"
     inkscape:pageopacity="0.0"
     inkscape:pageshadow="2"
     inkscape:zoom="0.20664229"
     inkscape:cx="-1032.7124"
     inkscape:cy="868.51517"
     inkscape:document-units="px"
     inkscape:current-layer="layer1"
     showgrid="false"
     inkscape:window-width="1920"
     inkscape:window-height="1017"
     inkscape:window-x="-8"
     inkscape:window-y="-8"
     inkscape:window-maximized="1"
     units="px" />
  <metadata
     id="metadata5">
    <rdf:RDF>
      <cc:Work
         rdf:about="">
        <dc:format>image/svg+xml</dc:format>
        <dc:type
           rdf:resource="http://purl.org/dc/dcmitype/StillImage" />
        <dc:title></dc:title>
      </cc:Work>
    </rdf:RDF>
  </metadata>
  <g
     inkscape:label="Vrstva 1"
     inkscape:groupmode="layer"
     id="layer1"
     transform="translate(0,-161.53334)">
    <g
       id="g830"
       transform="matrix(0.26458332,0,0,0.26458332,0,218.41875)">
      <rect
         y="-215"
         x="2.1316282e-14"
         height="512"
         width="512"
         id="rect815"
         style="fill:#ffffff;fill-opacity:1;stroke:none;stroke-width:16.78231621;stroke-miterlimit:4;stroke-dasharray:none;stroke-opacity:1" />
      <g
         id="g835"
         transform="matrix(0.80314097,0,0,0.80314097,81.000401,-134)">
        <path
           d="m 369.21,435.789 c -6.68,0 -12.105,-5.426 -12.105,-12.104 V 24.21 H 78.684 v 399.474 c 0,6.679 -5.423,12.104 -12.105,12.104 -6.682,0 -12.105,-5.426 -12.105,-12.104 V 12.105 C 54.474,5.423 59.897,0 66.579,0 H 369.21 c 6.679,0 12.104,5.423 12.104,12.105 v 411.579 c 10e-4,6.679 -5.425,12.105 -12.104,12.105 z M 341.973,45.395 V 423.684 H 93.816 V 45.395 Z m -187.631,192.17 c 0,-10.863 -7.451,-19.67 -16.645,-19.67 -9.194,0 -16.645,8.807 -16.645,19.67 0,10.864 7.451,19.672 16.645,19.672 9.194,0 16.645,-8.808 16.645,-19.672 z"
           id="path2"
           inkscape:connector-curvature="0"
           style="fill:#b33e17;fill-opacity:0.79037805;stroke:#593e0c;stroke-width:12.45111465;stroke-miterlimit:4;stroke-dasharray:none;stroke-opacity:0.96219931" />
        <ellipse
           style="fill:#ffff00;fill-opacity:1;stroke:#593e0c;stroke-width:13.16844273;stroke-miterlimit:4;stroke-dasharray:none;stroke-opacity:0.96219931"
           id="path831"
           cx="137.52188"
           cy="246.32895"
           rx="16.449715"
           ry="19.418148"
           transform="matrix(0.9980523,-0.06238268,0,1,0,0)" />
      </g>
    </g>
  </g>
</svg>
