<?xml version="1.0" encoding="UTF-8" standalone="no"?>
<!-- Created with Inkscape (http://www.inkscape.org/) -->

<svg
   xmlns:dc="http://purl.org/dc/elements/1.1/"
   xmlns:cc="http://creativecommons.org/ns#"
   xmlns:rdf="http://www.w3.org/1999/02/22-rdf-syntax-ns#"
   xmlns:svg="http://www.w3.org/2000/svg"
   xmlns="http://www.w3.org/2000/svg"
   xmlns:sodipodi="http://sodipodi.sourceforge.net/DTD/sodipodi-0.dtd"
   xmlns:inkscape="http://www.inkscape.org/namespaces/inkscape"
   width="512"
   height="512"
   viewBox="0 0 135.46666 135.46666"
   version="1.1"
   id="svg8"
   inkscape:version="0.92.4 (5da689c313, 2019-01-14)"
   sodipodi:docname="thermometer_blue.svg"
   inkscape:export-filename="G:\Můj disk\JSC electronics\Projekty\Adeon\Grafika\Icons\Maus\s bílým podkladem\person_purple.png"
   inkscape:export-xdpi="25.4"
   inkscape:export-ydpi="25.4">
  <defs
     id="defs2" />
  <sodipodi:namedview
     id="base"
     pagecolor="#ffffff"
     bordercolor="#666666"
     borderopacity="1.0"
     inkscape:pageopacity="0.0"
     inkscape:pageshadow="2"
     inkscape:zoom="0.14611816"
     inkscape:cx="-136.93762"
     inkscape:cy="1444.4177"
     inkscape:document-units="px"
     inkscape:current-layer="layer1"
     showgrid="false"
     inkscape:window-width="1920"
     inkscape:window-height="1017"
     inkscape:window-x="-8"
     inkscape:window-y="-8"
     inkscape:window-maximized="1"
     units="px" />
  <metadata
     id="metadata5">
    <rdf:RDF>
      <cc:Work
         rdf:about="">
        <dc:format>image/svg+xml</dc:format>
        <dc:type
           rdf:resource="http://purl.org/dc/dcmitype/StillImage" />
        <dc:title></dc:title>
      </cc:Work>
    </rdf:RDF>
  </metadata>
  <g
     inkscape:label="Vrstva 1"
     inkscape:groupmode="layer"
     id="layer1"
     transform="translate(0,-161.53334)">
    <g
       id="g961"
       transform="matrix(0.26458332,0,0,0.26458332,0,218.41875)">
      <rect
         y="-215"
         x="2.1316282e-14"
         height="512"
         width="512"
         id="rect815"
         style="fill:#ffffff;fill-opacity:1;stroke:none;stroke-width:16.78231621;stroke-miterlimit:4;stroke-dasharray:none;stroke-opacity:1" />
      <g
         id="g1032"
         transform="translate(0,-215)">
        <g
           id="g1027">
          <path
             style="fill:#0050ff;fill-opacity:0.92783502;stroke:none;stroke-width:0;stroke-miterlimit:4;stroke-dasharray:none;stroke-opacity:1"
             inkscape:connector-curvature="0"
             id="path2"
             d="m 268.31796,344.83999 c 0,-1.22538 0,-1.22538 0,-2.45012 V 219.0129 c 0,-7.41677 -4.90151,-12.31829 -12.31764,-12.31829 -7.41677,0 -12.31828,6.19139 -12.31828,12.31829 v 123.31119 c 0,1.22538 0,1.22538 0,2.4514 -14.83354,4.96537 -24.63657,18.50903 -24.63657,34.5041 0,20.96043 16.05891,37.01935 37.01935,37.01935 20.95978,0 37.0187,-16.05892 37.0187,-37.01935 -0.0639,-15.92929 -9.93202,-29.47295 -24.76556,-34.4396 z" />
          <path
             style="fill:#000000;fill-opacity:1;stroke:#470000;stroke-width:0.64499998;stroke-miterlimit:4;stroke-dasharray:none;stroke-opacity:1"
             inkscape:connector-curvature="0"
             id="path4"
             d="M 293.01967,330.0703 V 108.01935 c 0,-20.960435 -16.05892,-37.019351 -37.01935,-37.019351 -20.96043,0 -37.01935,17.284295 -37.01935,37.019351 v 221.9871 C 204.14744,341.1 194.3444,359.60903 194.3444,379.34408 c 0,34.5041 27.15183,61.65592 61.65592,61.65592 34.5041,0 61.65528,-27.15182 61.65528,-61.65592 0,-19.73505 -9.86689,-38.18023 -24.63593,-49.27378 z m -37.01935,98.67526 c -27.15182,0 -49.33763,-22.18452 -49.33763,-49.33763 0,-18.50903 9.86753,-34.5041 24.63657,-43.14495 V 108.01935 c 0,-13.543667 11.0929,-24.636573 24.63657,-24.636573 13.54366,0 24.63592,11.092906 24.63592,24.636573 v 228.17784 c 14.83354,8.64215 24.63722,24.63722 24.63722,43.14625 0.12899,27.15182 -22.05747,49.40212 -49.20865,49.40212 z" />
        </g>
      </g>
    </g>
  </g>
</svg>
