<?xml version="1.0" encoding="UTF-8" standalone="no"?>
<!-- Created with Inkscape (http://www.inkscape.org/) -->

<svg
   xmlns:dc="http://purl.org/dc/elements/1.1/"
   xmlns:cc="http://creativecommons.org/ns#"
   xmlns:rdf="http://www.w3.org/1999/02/22-rdf-syntax-ns#"
   xmlns:svg="http://www.w3.org/2000/svg"
   xmlns="http://www.w3.org/2000/svg"
   xmlns:sodipodi="http://sodipodi.sourceforge.net/DTD/sodipodi-0.dtd"
   xmlns:inkscape="http://www.inkscape.org/namespaces/inkscape"
   width="512"
   height="512"
   viewBox="0 0 135.46666 135.46666"
   version="1.1"
   id="svg8"
   inkscape:version="0.92.4 (5da689c313, 2019-01-14)"
   sodipodi:docname="heating.svg">
  <defs
     id="defs2" />
  <sodipodi:namedview
     id="base"
     pagecolor="#ffffff"
     bordercolor="#666666"
     borderopacity="1.0"
     inkscape:pageopacity="0.0"
     inkscape:pageshadow="2"
     inkscape:zoom="0.10332114"
     inkscape:cx="-1532.711"
     inkscape:cy="1343.0787"
     inkscape:document-units="px"
     inkscape:current-layer="layer1"
     showgrid="false"
     inkscape:window-width="1920"
     inkscape:window-height="1017"
     inkscape:window-x="-8"
     inkscape:window-y="-8"
     inkscape:window-maximized="1"
     units="px" />
  <metadata
     id="metadata5">
    <rdf:RDF>
      <cc:Work
         rdf:about="">
        <dc:format>image/svg+xml</dc:format>
        <dc:type
           rdf:resource="http://purl.org/dc/dcmitype/StillImage" />
        <dc:title></dc:title>
      </cc:Work>
    </rdf:RDF>
  </metadata>
  <g
     inkscape:label="Vrstva 1"
     inkscape:groupmode="layer"
     id="layer1"
     transform="translate(0,-161.53334)">
    <g
       id="g874"
       transform="matrix(0.26458332,0,0,0.26458332,0,218.41875)">
      <rect
         y="-215"
         x="2.1316282e-14"
         height="512"
         width="512"
         id="rect815"
         style="fill:#ffffff;fill-opacity:1;stroke:none;stroke-width:16.78231621;stroke-miterlimit:4;stroke-dasharray:none;stroke-opacity:1" />
      <g
         id="g846"
         transform="translate(0,-215.76013)">
        <path
           style="fill:#ff2f26;fill-opacity:1;stroke:#b20000;stroke-width:7;stroke-miterlimit:4;stroke-dasharray:none;stroke-opacity:1"
           d="m 147.28797,158.6052 c -2.4279,2.80132 -2.12296,7.04723 0.67966,9.47771 1.26886,1.10218 2.83491,1.64099 4.39192,1.64099 1.88004,0 3.7562,-0.7869 5.07933,-2.31548 1.04274,-1.20426 25.27778,-29.67745 6.90251,-52.80514 -10.19355,-12.83207 -2.66047,-20.291486 -1.02336,-21.681809 2.85172,-2.316775 3.313,-6.50971 1.0169,-9.393726 -2.31289,-2.899522 -6.53813,-3.372439 -9.44153,-1.066001 -7.04077,5.610393 -16.33501,21.292876 -1.07634,40.500266 11.44174,14.39036 -6.35465,35.43903 -6.52909,35.64319 z"
           id="path2"
           inkscape:connector-curvature="0" />
        <path
           style="fill:#ff2f26;fill-opacity:1;stroke:#b20000;stroke-width:7;stroke-miterlimit:4;stroke-dasharray:none;stroke-opacity:1"
           d="m 206.07822,158.6052 c -2.42789,2.80132 -2.12295,7.04723 0.67837,9.47771 1.26886,1.10218 2.83491,1.64099 4.39321,1.64099 1.88004,0 3.7562,-0.7869 5.07804,-2.31548 1.04404,-1.20426 25.27778,-29.67745 6.90252,-52.80514 -10.19355,-12.83207 -2.66048,-20.291486 -1.02336,-21.681809 2.85171,-2.316775 3.313,-6.50971 1.0169,-9.393726 -2.3129,-2.899522 -6.53814,-3.372439 -9.44154,-1.066001 -7.04077,5.610393 -16.335,21.292876 -1.07634,40.500266 11.44304,14.39036 -6.35465,35.43903 -6.5278,35.64319 z"
           id="path4"
           inkscape:connector-curvature="0" />
        <path
           style="fill:#ff2f26;fill-opacity:0.88235294;stroke:#b20000;stroke-width:7;stroke-miterlimit:4;stroke-dasharray:none;stroke-opacity:1"
           d="m 264.86719,158.6052 c -2.4279,2.80132 -2.12296,7.04723 0.67965,9.47771 1.26887,1.10218 2.8375,1.64099 4.39192,1.64099 1.88263,0 3.76008,-0.7869 5.07934,-2.31548 1.04274,-1.20426 25.28036,-29.67745 6.90251,-52.80514 -10.18967,-12.83207 -2.65789,-20.291486 -1.02336,-21.681809 2.8543,-2.316775 3.313,-6.50971 1.0169,-9.393726 -2.31031,-2.899522 -6.53555,-3.372439 -9.44283,-1.066001 -7.03948,5.610393 -16.335,21.292876 -1.07633,40.500266 11.44432,14.39036 -6.35337,35.43903 -6.5278,35.64319 z"
           id="path6"
           inkscape:connector-curvature="0" />
        <path
           style="fill:#ff2f26;fill-opacity:1;stroke:#b20000;stroke-width:7;stroke-miterlimit:4;stroke-dasharray:none;stroke-opacity:1"
           d="m 323.65744,158.6052 c -2.4279,2.80132 -2.12683,7.04723 0.68224,9.47771 1.26628,1.10218 2.83362,1.64099 4.38934,1.64099 1.88262,0 3.75878,-0.7869 5.07804,-2.31548 1.04403,-1.20426 25.28036,-29.67745 6.90381,-52.80514 -10.19097,-12.83207 -2.6579,-20.291486 -1.02466,-21.681809 2.8543,-2.316775 3.313,-6.50971 1.0169,-9.393726 -2.30902,-2.899522 -6.53555,-3.372439 -9.44153,-1.066001 -7.04077,5.610393 -16.33242,21.292876 -1.07634,40.500266 11.44432,14.39036 -6.35724,35.43903 -6.5278,35.64319 z"
           id="path8"
           inkscape:connector-curvature="0" />
        <path
           style="fill:#ffffff;fill-opacity:0.00392157;stroke:#000000;stroke-width:10;stroke-miterlimit:4;stroke-dasharray:none;stroke-opacity:1"
           d="m 131.422,431 c 11.13422,0 20.15711,-9.0216 20.15711,-20.1571 V 214.57733 c 0,-11.13163 -9.0216,-20.1571 -20.15711,-20.1571 -11.13163,0 -20.1571,9.02418 -20.1571,20.1571 V 410.84419 C 111.2662,421.97194 120.29167,431 131.422,431 Z"
           id="path10"
           inkscape:connector-curvature="0" />
        <path
           style="fill:#ffffff;fill-opacity:0.00392157;stroke:#000000;stroke-width:10;stroke-miterlimit:4;stroke-dasharray:none;stroke-opacity:1"
           d="m 157.17658,214.2879 v 196.26685 c 0,11.13551 9.02547,20.1571 20.15581,20.1571 11.1355,0 20.1571,-9.0203 20.1571,-20.1571 V 214.2879 c 0,-11.13163 -9.0216,-20.15711 -20.1571,-20.15711 -11.13163,0.001 -20.15581,9.02548 -20.15581,20.15711 z"
           id="path12"
           inkscape:connector-curvature="0" />
        <path
           style="fill:#ffffff;fill-opacity:0.00392157;stroke:#000000;stroke-width:10;stroke-miterlimit:4;stroke-dasharray:none;stroke-opacity:1"
           d="m 223.24923,430.42242 c 11.13422,0 20.1571,-9.0203 20.1571,-20.15581 V 213.99975 c 0,-11.13163 -9.02159,-20.1571 -20.1571,-20.1571 -11.13163,0 -20.1571,9.02547 -20.1571,20.1571 V 410.2679 c 0,11.12646 9.02547,20.15452 20.1571,20.15452 z"
           id="path14"
           inkscape:connector-curvature="0" />
        <path
           style="fill:#ffffff;fill-opacity:0.00392157;stroke:#000000;stroke-width:10;stroke-miterlimit:4;stroke-dasharray:none;stroke-opacity:1"
           d="m 269.15832,430.13428 c 11.13422,0 20.1571,-9.0216 20.1571,-20.15711 V 213.71032 c 0,-11.13034 -9.02159,-20.15581 -20.1571,-20.15581 -11.13163,0 -20.1571,9.02547 -20.1571,20.15581 v 196.26815 c 0.001,11.13421 9.02547,20.15581 20.1571,20.15581 z"
           id="path16"
           inkscape:connector-curvature="0" />
        <path
           style="fill:#ffffff;fill-opacity:0.00392157;stroke:#000000;stroke-width:10;stroke-miterlimit:4;stroke-dasharray:none;stroke-opacity:1"
           d="m 315.07517,429.84484 c 11.13421,0 20.1571,-9.02159 20.1571,-20.1571 V 213.42217 c 0,-11.13163 -9.0216,-20.1571 -20.1571,-20.1571 -11.12776,0 -20.1571,9.02547 -20.1571,20.1571 v 196.26686 c 10e-4,11.13422 9.02934,20.15581 20.1571,20.15581 z"
           id="path18"
           inkscape:connector-curvature="0" />
        <path
           style="fill:#ffffff;fill-opacity:0.00343646;stroke:#000000;stroke-width:10;stroke-miterlimit:4;stroke-dasharray:none;stroke-opacity:1"
           d="m 340.82845,213.13403 v 196.26686 c 0,11.13421 9.02159,20.1571 20.1571,20.1571 11.13551,0 20.1571,-9.0216 20.1571,-20.1571 V 278.60585 h 3.07784 c 9.12108,0 16.51461,-11.52831 16.51461,-25.75587 0,-14.22497 -7.39482,-25.75328 -16.51461,-25.75328 -1.04921,0 -2.07386,0 -3.07784,0 v -13.96267 c 0,-11.13163 -9.02159,-20.1571 -20.1571,-20.1571 -11.13551,0 -20.1571,9.03193 -20.1571,20.1571 z"
           id="path20"
           inkscape:connector-curvature="0" />
      </g>
    </g>
  </g>
</svg>
